<svg xmlns="http://www.w3.org/2000/svg" width="43" height="42" fill="none" viewBox="0 0 43 42"><g clip-path="url(#a)"><path fill="#fff" d="M0 0h43v42H0z"/><path fill="#2D383F" d="m15.73 27.24 3.77-3.88 4.29 3.88h7.34L19.45 16 7.87 27.24h7.86Z"/><path fill="#2D383F" d="m26.52 9.2-5.56 5.56 3.67 3.7 1.89-1.85 10.31 10.08a16.54 16.54 0 0 1-15.5 10.55C12.2 37.24 4.8 29.97 4.8 21A16.45 16.45 0 0 1 21.38 4.76c8.1 0 14.89 5.79 16.25 13.33l5 5.18A20.67 20.67 0 0 0 36.5 6.16 21.43 21.43 0 0 0 21.37 0 21.35 21.35 0 0 0 6.26 6.15 20.59 20.59 0 0 0 0 21a20.6 20.6 0 0 0 6.26 14.85A21.43 21.43 0 0 0 21.38 42c5.7 0 11.07-2.17 15.12-6.15a20.46 20.46 0 0 0 5.28-8.56c.19-.55.33-1.16.47-1.71l-4.33-4.49L26.52 9.2Z"/></g><defs><clipPath id="a"><path fill="#fff" d="M0 0h43v42H0z"/></clipPath></defs></svg>