<svg xmlns="http://www.w3.org/2000/svg" xmlns:xlink="http://www.w3.org/1999/xlink"><defs>
    <clipPath id="a">
      <path fill="#fff" d="M.33 0h25v25h-25z"/>
    </clipPath>
  
    <clipPath id="a">
      <path fill="#fff" d="M.67 0h25v25h-25z"/>
    </clipPath>
  
    <clipPath id="a">
      <path fill="#fff" d="M0 0h25v25H0z"/>
    </clipPath>
  
    <clipPath id="a">
      <path fill="#fff" d="M0 0h25v25H0z"/>
    </clipPath>
  
    <clipPath id="a">
      <path fill="#fff" d="M0 0h26v26H0z"/>
    </clipPath>
  
    <clipPath id="clip0_2328_625">
      <rect width="12" height="12" fill="white"/>
    </clipPath>
  </defs><symbol id="arrow" viewBox="0 0 12 22"><g fill="none">
  <path fill="#fff" d="M12 11 0 0v22l12-11Z"/>
</g></symbol><symbol id="boots" viewBox="0 0 26 25"><g fill="none">
  <g fill="#2D383F" clip-path="url(#a)">
    <path d="M24.98 16.27c.77-2.44.14-5.2-.54-7.11a16.6 16.6 0 0 0-.7-1.7.89.89 0 0 0 .56-.83v-3.7c0-.48-.4-.88-.88-.88H12.5a.44.44 0 0 0-.44.47c.15 2.66-.05 4.47-.61 5.74a.39.39 0 0 0-.03.04v.07c-.22.46-.51.89-.86 1.26l-.04.02v.03c-.52.5-1.13.9-1.78 1.2-1.14.5-2.31.94-3.5 1.3l-.23.08C.87 13.64.32 16.13.33 17.38v3.23c0 .15.09.3.22.37A12.9 12.9 0 0 0 3.8 22.4a.44.44 0 0 0 .56-.45v-.1h.66v.44c0 .22.15.41.37.45.38.06.77.1 1.15.14a.44.44 0 0 0 .48-.44v-.56h.65v.63c0 .24.2.44.44.44.38 0 .75 0 1.15-.05.23-.02.4-.21.4-.45v-.57h.66v.39a.44.44 0 0 0 .52.44 15.5 15.5 0 0 0 2.4-.57l.07-.03c3.1-1.78 5.08-.32 5.16-.26.07.06.17.1.27.1h.55c.24 0 .44-.2.44-.45v-.75h.63v.74c0 .25.2.45.45.45h1.43c.24 0 .44-.2.44-.45v-.74h.66v.74c0 .25.2.45.44.45h1.1c.24 0 .44-.2.44-.45v-4.78c0-.21-.14-.4-.35-.44ZM14.44 2.95h8.95v3.67h-8.95V2.95ZM8.87 11.8v.02c.36.3.7.63 1 .98a.84.84 0 0 0-.12.45.85.85 0 1 0 .93-.84c-.28-.38-.6-.74-.96-1.05.4-.23.77-.5 1.12-.8.43.41.83.85 1.2 1.3a.85.85 0 1 0 .79-.56h-.1c-.4-.5-.82-.95-1.28-1.38.21-.26.4-.54.56-.84.69.36 1.35.76 2 1.2a.86.86 0 1 0 .47-.76c-.67-.45-1.37-.86-2.1-1.23.49-1.29.7-3 .6-5.33h.58v3.68c0 .49.4.89.89.89h8.32c.11.23.3.64.52 1.17h-.18a4.88 4.88 0 0 0-2.88 8.8c-3.59.95-8.99 2.07-13.54 1.78.84-3.35-.16-5.42-.81-6.32 1.01-.33 2.01-.72 2.99-1.16Zm-3.88 1.4c.48.57 1.73 2.46.8 5.95-1.6-.13-3.14-.6-4.55-1.38l-.03-.3v-.04c-.03-.94.32-2.99 3.78-4.23Zm19.25 7.84v-.74c0-.25-.2-.44-.45-.44h-1.54c-.24 0-.44.2-.44.44v.74h-.55v-.74c0-.25-.2-.44-.44-.44h-1.53c-.25 0-.45.2-.45.44v.72c-.6-.37-2.8-1.47-5.94.28-.55.18-1.12.33-1.7.44v-.3c0-.25-.2-.45-.44-.45H9.23c-.25 0-.44.2-.44.45v.6h-.23v-.62c0-.24-.2-.44-.44-.44H6.58c-.25 0-.45.2-.45.44v.53l-.23-.03v-.5c0-.24-.2-.44-.44-.44H3.92a.44.44 0 0 0-.44.39c-.8-.26-1.55-.6-2.27-1.02v-1.59c1.94 1.03 4.44 1.42 7.1 1.42 7.08 0 15.18-2.71 16.13-3.04v3.9h-.2Zm-.22-4.68c-.38.12-1.3.44-2.59.78a4 4 0 0 1 2.2-7.56v.01c.66 1.89 1.25 4.57.39 6.77Z"/>
    <path d="M16.15 3.48a1.3 1.3 0 1 0 0 2.59 1.3 1.3 0 0 0 0-2.59Zm0 1.7a.4.4 0 1 1 0-.8.4.4 0 0 1 0 .8Z"/>
  </g>
  
</g></symbol><symbol id="crown" viewBox="0 0 24 24"><g fill="none">
  <path d="M19.2945 21.818H4.70534M22.909 7.75649L19.7177 18.3324H4.28216L1.09082 7.75649L7.3872 11.579L11.9999 2.18164L16.6126 11.579L22.909 7.75649Z" stroke="#0266C1"/>
</g></symbol><symbol id="email" viewBox="0 0 26 26"><g fill="none">
  <path stroke="#2D383F" stroke-linecap="round" stroke-linejoin="round" d="M24.82 6.57v12.86c0 1.02-.76 1.84-1.69 1.84H2.87c-.93 0-1.69-.82-1.69-1.84V6.57m23.64 0c0-1.02-.76-1.84-1.69-1.84H2.87c-.93 0-1.69.82-1.69 1.84m23.64 0-9.62 8.98a3.17 3.17 0 0 1-4.4 0L1.18 6.57"/>
</g></symbol><symbol id="forest" viewBox="0 0 26 25"><g fill="none">
  <g clip-path="url(#a)">
    <path fill="#2D383F" d="m25.26 18.08-4.9-5.61h2.36a.5.5 0 0 0 .4-.8l-3.94-5.18h2a.5.5 0 0 0 .38-.84L16.74.17a.5.5 0 0 0-.75 0l-4.83 5.48a.5.5 0 0 0 .38.84h2.03l-1.22 1.58-3.25-3.7a.5.5 0 0 0-.75 0l-4.12 4.7a.5.5 0 0 0 .37.82h1.6l-3.3 4.32a.5.5 0 0 0 .39.8h1.85l-4.07 4.68a.5.5 0 0 0 .38.83h5.54v3.5c0 .54.43.98.97.98H9.5c.54 0 .98-.43.98-.97v-3.51h4.16v3.5c0 .54.43.98.97.98h1.53c.54 0 .97-.44.97-.97v-5.11h6.78a.5.5 0 0 0 .38-.84ZM9.46 24 8 24.03l-.03-3.51h1.5V24Zm5.17-4.48H2.55l4.1-4.68a.5.5 0 0 0-.39-.84H4.31L7.6 9.7a.5.5 0 0 0-.4-.8H5.7l3-3.43 3.01 3.41-2.11 2.8a.5.5 0 0 0 .4.8h2.37l-4.9 5.62a.5.5 0 0 0 .37.83h6.78v.6Zm2.47 4.47-1.47.04-.03-5.11h1.5v5.07Zm.03-6.08H8.95l4.9-5.61a.5.5 0 0 0-.37-.83h-2.46l3.96-5.19a.5.5 0 0 0-.4-.8h-1.92l3.72-4.22 3.7 4.22h-1.93a.5.5 0 0 0-.4.81l3.94 5.18h-2.45a.5.5 0 0 0-.37.83l4.9 5.61h-6.64Z"/>
  </g>
  
</g></symbol><symbol id="icon-close" viewBox="0 0 20 20"><g fill="none"><path d="M.293 18.291a1 1 0 101.414 1.414L10 11.413l8.292 8.292a1 1 0 101.414-1.414l-8.292-8.292 8.292-8.292A1 1 0 1018.291.293L9.999 8.585 1.707.293A1 1 0 10.293 1.707L8.585 10 .293 18.291z"/></g></symbol><symbol id="map-pin" viewBox="0 0 26 26"><g fill="none">
  <path stroke="#2D383F" stroke-linecap="round" stroke-linejoin="round" d="M21.86 9.63c0-4.67-3.96-8.45-8.86-8.45-4.9 0-8.86 3.78-8.86 8.45v.5c0 1.87.6 3.7 1.75 5.21l7.1 9.47h.03l7.1-9.47a8.67 8.67 0 0 0 1.74-5.2v-.51Z"/>
  <path stroke="#2D383F" stroke-linecap="round" stroke-linejoin="round" d="M11.27 6.25c1.1-.5 2.37-.5 3.46 0a3.8 3.8 0 0 1 2.16 2.58 3.67 3.67 0 0 1-.77 3.22c-.76.9-1.9 1.43-3.12 1.43a4.07 4.07 0 0 1-3.12-1.43 3.67 3.67 0 0 1-.77-3.22 3.85 3.85 0 0 1 2.16-2.58Z"/>
</g></symbol><symbol id="map" viewBox="0 0 25 25"><g fill="none">
  <g fill="#2D383F" clip-path="url(#a)">
    <path d="M24.17 22.28V6.7a.46.46 0 0 0-.6-.46v.02l-2.09.65c.22-.58.35-1.2.39-1.82a5.1 5.1 0 0 0-10.19 0c.03.6.15 1.18.36 1.74L8.59 5.6a.5.5 0 0 0-.12 0h-.04a.46.46 0 0 0-.16.03L1.13 8.41a.46.46 0 0 0-.3.39v15.6a.46.46 0 0 0 .63.43l6.98-2.7 7.97 2.85c.1.03.2.03.3 0l7.14-2.24c.2-.06.33-.25.32-.46ZM16.77.93c2.3 0 4.17 1.86 4.17 4.16 0 1.82-2.72 6.82-4.17 9.27-1.45-2.47-4.16-7.48-4.16-9.27 0-2.3 1.86-4.16 4.16-4.16Zm6.49 21.03-6.24 1.95v-3.53a.46.46 0 0 0-.92 0v3.5L8.9 21.3v-2.96a.46.46 0 0 0-.92 0v2.96l-6.22 2.43v-7.16l2.28-.93a.46.46 0 1 0-.34-.86l-1.94.79V9.12L7.98 6.7v1.4a.46.46 0 0 0 .92 0V6.7l3.55 1.27a64.34 64.34 0 0 0 3.93 7.55.46.46 0 0 0 .79 0 64.59 64.59 0 0 0 3.9-7.5l2.17-.69.02 7.6-2.35.56a.47.47 0 1 0 .11.93h.11l2.13-.52v6.06Z"/>
    <path d="M16.76 2.4a2.7 2.7 0 1 0 0 5.38 2.7 2.7 0 0 0 0-5.38Zm0 4.46A1.77 1.77 0 0 1 15 5.09h-.02a1.76 1.76 0 1 1 1.77 1.77Zm-6.06 7.11v.01l-2.24-.97a.46.46 0 0 0-.36 0l-1.9.77a.46.46 0 1 0 .35.86l1.72-.7 2.06.88c.06.02.12.04.18.04a.46.46 0 0 0 .19-.9Zm7.57 2.65a.46.46 0 0 0-.52-.32v-.04l-1.15.28-1.94-.85a.46.46 0 0 0-.37.86l2.08.92a.4.4 0 0 0 .19.04h.1l1.3-.31a.46.46 0 0 0 .31-.58Z"/>
  </g>
  
</g></symbol><symbol id="moon" viewBox="0 0 20 20"><g fill="none">
  <path fill="#fff" d="M17.62 11.1a.56.56 0 0 0-.47.1 6 6 0 0 1-9.9-4.59c0-.7.13-1.37.33-1.99.23-.65.55-1.25.98-1.76a.53.53 0 0 0-.08-.74c-.14-.1-.3-.15-.47-.1A8.14 8.14 0 0 0 10.1 18a8.11 8.11 0 0 0 7.87-6.24c.1-.3-.06-.6-.35-.65Zm-3.13 4.3a6.97 6.97 0 0 1-9.32-.56A7.05 7.05 0 0 1 6.9 3.6a7.1 7.1 0 0 0 6.38 10.11 6.82 6.82 0 0 0 3.2-.76 7.46 7.46 0 0 1-2 2.44Z"/>
</g></symbol><symbol id="mountain" viewBox="0 0 25 25"><g fill="none">
  <g fill="#2D383F" clip-path="url(#a)">
    <path d="M23.42 24.19 15.56 5.9a.48.48 0 0 0-.88 0l-4.74 11L7 10.17a.48.48 0 0 0-.88 0l-2.75 6.36-3.34 7.66a.48.48 0 0 0 .44.67h22.5a.48.48 0 0 0 .44-.66Zm-8.3-16.9 3.1 7.2h-1.1l-1.96-2.17a.48.48 0 0 0-.76.07l-.73 1.13h-1.23L15.1 7.3Zm-8.55 4.24 2.45 5.66H7.68a.48.48 0 0 0-.4.22l-.48.76-1.23-1.74a.48.48 0 0 0-.39-.2h-.63l2.02-4.7ZM1.23 23.9l2.9-6.72h.8l1.5 2.12c.08.13.23.2.38.2a.5.5 0 0 0 .4-.21l.73-1.14h1.49l2.48 5.73-10.68.02Zm11.73 0-2.5-5.77 1.57-3.65h1.9c.17 0 .32-.09.4-.22l.54-.82 1.69 1.87c.09.1.21.15.35.15h1.7l3.64 8.45-9.3-.01ZM7.61 2.08a2.25 2.25 0 0 0-4.35.8v.26a2.25 2.25 0 0 0 .9 4.29l.03.02h3.34a2.68 2.68 0 1 0 .08-5.37Zm-.05 4.43H4.22a1.3 1.3 0 1 1-.27-2.59.48.48 0 0 0 .36-.62 1.3 1.3 0 1 1 2.5-.64c.05.25.28.42.53.39h.22a1.73 1.73 0 0 1 0 3.46ZM23.7 2.64v-.25a2.25 2.25 0 0 0-4.35-.82 2.68 2.68 0 0 0 .1 5.36h3.34a2.25 2.25 0 0 0 .9-4.29Zm.36 2.3a1.3 1.3 0 0 1-1.26 1.03h-3.33a1.73 1.73 0 1 1 0-3.45h.21a.5.5 0 0 0 .52-.38 1.3 1.3 0 1 1 2.5.65.48.48 0 0 0 .36.62c.7.15 1.15.84 1 1.54Z"/>
  </g>
  
</g></symbol><symbol id="ok" viewBox="0 0 30 30"><g fill="none">
  <path stroke="#2D383F" stroke-opacity=".2" d="M.5.5h29v29H.5z"/>
  <path fill="#2D383F" d="M14.5 9.42c.92 0 1.66.77 1.66 1.71s-.74 1.7-1.66 1.7c-.92 0-1.66-.76-1.66-1.7s.74-1.71 1.66-1.71Zm0 5.84a4.08 4.08 0 0 0 4.01-4.13c0-2.28-1.8-4.13-4.01-4.13s-4 1.85-4 4.13 1.79 4.13 4 4.13Zm1.62 3.37a7.6 7.6 0 0 0 2.33-1c.55-.35.71-1.1.37-1.66a1.15 1.15 0 0 0-1.62-.39 4.97 4.97 0 0 1-5.4 0 1.15 1.15 0 0 0-1.62.39c-.34.56-.18 1.3.37 1.66.73.47 1.51.8 2.33 1l-2.24 2.3a1.24 1.24 0 0 0 0 1.71 1.16 1.16 0 0 0 1.66 0l2.2-2.26 2.2 2.26c.46.48 1.2.48 1.66 0 .46-.47.46-1.23 0-1.7l-2.24-2.31Z"/>
</g></symbol><symbol id="phone" viewBox="0 0 26 26"><g fill="none">
  <g clip-path="url(#a)">
    <path stroke="#2D383F" stroke-linecap="round" stroke-linejoin="round" d="M22.84 23.69a2 2 0 0 1-1.99 1.12 22.24 22.24 0 0 1-13.29-6.4A22.31 22.31 0 0 1 1.2 5.07a2.01 2.01 0 0 1 1.12-2l3.25-1.65c1.26-.65 2.78.1 3.22 1.45a22.06 22.06 0 0 0 1.53 3.57c.49.9.16 2.05-.77 2.48a2.13 2.13 0 0 0-.62 3.44l4.67 4.69a2.12 2.12 0 0 0 3.43-.62 1.9 1.9 0 0 1 2.61-.85 21.75 21.75 0 0 0 3.46 1.41c1.37.43 2.14 1.98 1.5 3.25l-1.75 3.45Z"/>
  </g>
  
</g></symbol><symbol id="reddit" viewBox="0 0 30 30"><g fill="none">
  <path stroke="#2D383F" stroke-opacity=".2" d="M.5.5h29v29H.5z"/>
  <path fill="#2D383F" d="M16.36 7c-.45 0-.87.24-1.14.6-.27.35-.42.78-.53 1.23-.17.73-.22 1.53-.23 2.26-1.27.09-2.4.49-3.36 1.1a1.94 1.94 0 0 0-1.3-.53c-.5 0-.98.24-1.34.72-.68.92-.6 2.42.2 3.31-.06.28-.1.56-.1.84C8.57 19.55 11.46 22 15 22c3.55 0 6.43-2.45 6.43-5.47 0-.28-.03-.56-.08-.84.79-.89.87-2.39.19-3.3a1.67 1.67 0 0 0-1.35-.73c-.44 0-.9.2-1.3.54a7.03 7.03 0 0 0-3.33-1.11c.02-.67.06-1.37.19-1.9a2 2 0 0 1 .27-.69c.1-.13.17-.18.34-.18.37 0 .41.12.63.43.11.15.24.34.44.53s.51.35.84.35V8.32c-.1 0-.11 0-.17-.07-.06-.06-.15-.2-.27-.37-.26-.35-.74-.88-1.47-.88Zm3.54.12c-.84 0-1.53.83-1.53 1.85s.69 1.85 1.53 1.85c.85 0 1.53-.83 1.53-1.85s-.68-1.85-1.53-1.85Zm0 .66c.55 0 .99.54.99 1.2 0 .65-.44 1.18-.99 1.18-.54 0-.99-.53-.99-1.19 0-.65.45-1.19 1-1.19ZM15 12.12c3.01 0 5.57 2.02 5.57 4.41 0 2.4-2.56 4.42-5.57 4.42-3.01 0-5.57-2.02-5.57-4.42 0-2.39 2.56-4.41 5.57-4.41Zm-5.17.6c.15 0 .3.04.46.12a5.2 5.2 0 0 0-1.28 1.72c-.2-.5-.15-1.14.1-1.48a.86.86 0 0 1 .72-.37Zm10.34 0c.28-.01.54.12.72.36.25.34.3.97.1 1.48a5.34 5.34 0 0 0-1.28-1.72c.16-.08.31-.13.46-.13Zm-7.35 1.64c-.54 0-.99.53-.99 1.19 0 .66.45 1.19 1 1.19.54 0 .98-.53.98-1.2 0-.65-.44-1.18-.99-1.18Zm4.36 0c-.55 0-.99.53-.99 1.19 0 .66.44 1.19.99 1.19.54 0 .99-.53.99-1.2 0-.65-.45-1.18-1-1.18Zm-4.89 4.04A2.98 2.98 0 0 0 15 20.11a3 3 0 0 0 2.72-1.7c-.63.48-1.62.82-2.72.82s-2.08-.34-2.7-.83Z"/>
</g></symbol><symbol id="safety" viewBox="0 0 24 24"><g fill="none">
  <path d="M9.54529 11.9039L11.9999 14.3521L16.2953 10.0677M11.9998 1.09082C9.46749 2.38571 6.64626 3.07423 3.76239 3.07423C3.37305 3.07423 2.98484 3.06168 2.59834 3.03679C2.09942 5.31296 2.04422 7.68139 2.45598 10.0106C3.1931 14.1803 5.37955 17.9575 8.63134 20.6791C9.67395 21.5517 10.8047 22.2979 11.9998 22.909C13.1949 22.2979 14.3257 21.5517 15.3683 20.6791C18.6201 17.9575 20.8065 14.1802 21.5437 10.0106C21.9554 7.68139 21.9002 5.31296 21.4013 3.03678C21.0148 3.06168 20.6266 3.07423 20.2372 3.07423C17.3533 3.07423 14.5321 2.38571 11.9998 1.09082Z" stroke="#0266C1"/>
</g></symbol><symbol id="scale" viewBox="0 0 12 12"><g fill="none">
  <g clip-path="url(#clip0_2328_625)">
    <path d="M10.909 11.4545H8.94536V0.54541H10.909V11.4545Z" stroke="white" stroke-miterlimit="16" stroke-linecap="round"/>
    <path d="M6.98173 11.4545V3.52062H5.01809L5.0181 11.4545H6.98173Z" stroke="white" stroke-miterlimit="16" stroke-linecap="round"/>
    <path d="M3.05446 11.4545V6.49582H1.09082V11.4545H3.05446Z" stroke="white" stroke-miterlimit="16" stroke-linecap="round"/>
  </g>
  
</g></symbol><symbol id="star3" viewBox="0 0 84 16"><g fill="none">
  <path fill="#fff" d="m7.63 11.7 4.72 2.6-1.25-4.92 4.17-3.3-5.5-.44L7.64 1 5.5 5.64 0 6.07l4.16 3.31-1.24 4.92 4.71-2.6Zm17 0 4.72 2.6-1.25-4.92 4.17-3.3-5.5-.44L24.64 1 22.5 5.64l-5.5.43 4.16 3.31-1.24 4.92 4.71-2.6Zm17 0 4.72 2.6-1.25-4.92 4.17-3.3-5.5-.44L41.64 1 39.5 5.64l-5.5.43 4.16 3.31-1.24 4.92 4.71-2.6Z"/>
  <path fill="#fff" fill-rule="evenodd" d="m58.63 10.55 3.19 1.76L60.98 9l2.68-2.13-3.54-.28-1.49-3.2-1.48 3.2-3.54.28L56.3 9l-.84 3.3 3.18-1.75Zm-4.71 3.75 1.24-4.92L51 6.08l5.49-.44L58.63 1l2.15 4.64 5.49.43-4.17 3.31 1.25 4.92-4.72-2.6-4.71 2.6Zm21.71-3.75 3.19 1.76L77.98 9l2.68-2.13-3.54-.28-1.49-3.2-1.48 3.2-3.54.28L73.3 9l-.84 3.3 3.18-1.75Zm-4.71 3.75 1.24-4.92L68 6.08l5.49-.44L75.63 1l2.15 4.64 5.49.43-4.17 3.31 1.25 4.92-4.72-2.6-4.71 2.6Z" clip-rule="evenodd"/>
</g></symbol><symbol id="star4" viewBox="0 0 84 16"><g fill="none">
  <path fill="#fff" d="m7.63 11.7 4.72 2.6-1.25-4.92 4.17-3.3-5.5-.44L7.64 1 5.5 5.64 0 6.07l4.16 3.31-1.24 4.92 4.71-2.6Zm17 0 4.72 2.6-1.25-4.92 4.17-3.3-5.5-.44L24.64 1 22.5 5.64l-5.5.43 4.16 3.31-1.24 4.92 4.71-2.6Zm17 0 4.72 2.6-1.25-4.92 4.17-3.3-5.5-.44L41.64 1 39.5 5.64l-5.5.43 4.16 3.31-1.24 4.92 4.71-2.6Zm17 0 4.72 2.6-1.25-4.92 4.17-3.3-5.5-.44L58.64 1 56.5 5.64l-5.5.43 4.16 3.31-1.24 4.92 4.71-2.6Z"/>
  <path fill="#fff" fill-rule="evenodd" d="m75.63 10.55 3.19 1.76L77.98 9l2.68-2.13-3.54-.28-1.49-3.2-1.48 3.2-3.54.28L73.3 9l-.84 3.3 3.18-1.75Zm-4.71 3.75 1.24-4.92L68 6.08l5.49-.44L75.63 1l2.15 4.64 5.49.43-4.17 3.31 1.25 4.92-4.72-2.6-4.71 2.6Z" clip-rule="evenodd"/>
</g></symbol><symbol id="sun" viewBox="0 0 20 20"><g fill="none">
  <path fill="#fff" d="M13.54 6.46A5.04 5.04 0 0 0 10 4.97 5.04 5.04 0 0 0 4.97 10a5.04 5.04 0 0 0 8.57 3.54 4.93 4.93 0 0 0 0-7.09Zm-.95 6.13A3.66 3.66 0 0 1 10 13.65c-1 0-1.93-.4-2.6-1.06A3.66 3.66 0 0 1 6.36 10c0-1 .4-1.93 1.06-2.6A3.66 3.66 0 0 1 10 6.36c1 0 1.93.4 2.6 1.06A3.66 3.66 0 0 1 13.64 10c0 1-.4 1.93-1.06 2.6Zm6.72-3.28h-2.03a.7.7 0 0 0-.7.69c0 .37.32.69.7.69h2.03A.7.7 0 0 0 20 10a.7.7 0 0 0-.69-.69ZM10 16.59a.7.7 0 0 0-.69.69v2.03c0 .37.32.69.69.69a.7.7 0 0 0 .69-.69v-2.03a.7.7 0 0 0-.69-.7Zm7.06-.48-1.45-1.45c-.24-.27-.69-.27-.95 0a.67.67 0 0 0 0 .95l1.45 1.45c.27.27.69.27.95 0a.67.67 0 0 0 0-.95ZM10 0a.7.7 0 0 0-.69.69v2.03c0 .38.32.7.69.7a.7.7 0 0 0 .69-.7V.7A.7.7 0 0 0 10 0Zm7.09 2.94a.67.67 0 0 0-.95 0l-1.46 1.45a.67.67 0 0 0 0 .95c.24.27.69.27.95 0L17.1 3.9a.67.67 0 0 0 0-.95ZM2.72 9.31H.7A.7.7 0 0 0 0 10c0 .37.3.69.69.69h2.03a.7.7 0 0 0 .7-.69.7.7 0 0 0-.7-.69Zm2.6 5.35c-.24-.27-.69-.27-.95 0L2.9 16.1a.67.67 0 0 0 0 .95c.26.27.69.27.95 0l1.46-1.45a.67.67 0 0 0 0-.95Zm0-10.26L3.86 2.93a.67.67 0 0 0-.95 0 .67.67 0 0 0 0 .95l1.46 1.45c.26.27.68.27.95 0a.67.67 0 0 0 0-.95Z"/>
</g></symbol><symbol id="tour-pin" viewBox="0 0 16 16"><g fill="none">
  <path fill="#fff" d="M8.5 2A4.46 4.46 0 0 0 4 6.42c0 .63.13 1.24.4 1.8a27.84 27.84 0 0 0 3.91 5.7.25.25 0 0 0 .38 0c.63-.73 2.8-3.28 3.92-5.7.26-.56.39-1.17.39-1.8A4.46 4.46 0 0 0 8.5 2Zm0 6.71a2.32 2.32 0 0 1-2.34-2.3A2.32 2.32 0 0 1 8.5 4.12a2.32 2.32 0 0 1 2.34 2.3c0 1.26-1.05 2.3-2.34 2.3Z"/>
</g></symbol><symbol id="vk" viewBox="0 0 30 30"><g fill="none">
  <path stroke="#2D383F" stroke-opacity=".2" d="M.5.5h29v29H.5z"/>
  <path fill="#2D383F" d="M22.86 19.03c-.05-.07-.31-.64-1.6-1.81-1.33-1.23-1.15-1.03.46-3.15.99-1.3 1.38-2.08 1.26-2.42-.12-.32-.84-.24-.84-.24l-2.4.02s-.19-.03-.32.05-.21.26-.21.26-.38 1-.9 1.85c-1.06 1.79-1.5 1.88-1.67 1.77-.4-.26-.3-1.04-.3-1.6 0-1.74.27-2.46-.52-2.65-.26-.06-.46-.1-1.13-.1-.85-.02-1.58 0-2 .2-.27.13-.48.42-.35.44.16.02.52.1.71.35.25.33.24 1.07.24 1.07s.14 2.05-.33 2.3c-.33.18-.77-.18-1.73-1.8-.48-.84-.85-1.76-.85-1.76s-.08-.17-.2-.26a.92.92 0 0 0-.37-.15l-2.29.01s-.34.01-.47.16c-.11.13 0 .4 0 .4s1.78 4.13 3.81 6.21c1.86 1.9 3.97 1.78 3.97 1.78h.95s.3-.03.44-.19c.14-.14.13-.41.13-.41s-.02-1.27.58-1.45c.59-.18 1.34 1.22 2.14 1.76.6.41 1.06.32 1.06.32l2.14-.03s1.12-.07.59-.93Z"/>
</g></symbol></svg>