<svg xmlns="http://www.w3.org/2000/svg" width="26" height="25" fill="none" viewBox="0 0 26 25">
  <g clip-path="url(#a)">
    <path fill="#2D383F" d="m25.26 18.08-4.9-5.61h2.36a.5.5 0 0 0 .4-.8l-3.94-5.18h2a.5.5 0 0 0 .38-.84L16.74.17a.5.5 0 0 0-.75 0l-4.83 5.48a.5.5 0 0 0 .38.84h2.03l-1.22 1.58-3.25-3.7a.5.5 0 0 0-.75 0l-4.12 4.7a.5.5 0 0 0 .37.82h1.6l-3.3 4.32a.5.5 0 0 0 .39.8h1.85l-4.07 4.68a.5.5 0 0 0 .38.83h5.54v3.5c0 .54.43.98.97.98H9.5c.54 0 .98-.43.98-.97v-3.51h4.16v3.5c0 .54.43.98.97.98h1.53c.54 0 .97-.44.97-.97v-5.11h6.78a.5.5 0 0 0 .38-.84ZM9.46 24 8 24.03l-.03-3.51h1.5V24Zm5.17-4.48H2.55l4.1-4.68a.5.5 0 0 0-.39-.84H4.31L7.6 9.7a.5.5 0 0 0-.4-.8H5.7l3-3.43 3.01 3.41-2.11 2.8a.5.5 0 0 0 .4.8h2.37l-4.9 5.62a.5.5 0 0 0 .37.83h6.78v.6Zm2.47 4.47-1.47.04-.03-5.11h1.5v5.07Zm.03-6.08H8.95l4.9-5.61a.5.5 0 0 0-.37-.83h-2.46l3.96-5.19a.5.5 0 0 0-.4-.8h-1.92l3.72-4.22 3.7 4.22h-1.93a.5.5 0 0 0-.4.81l3.94 5.18h-2.45a.5.5 0 0 0-.37.83l4.9 5.61h-6.64Z" />
  </g>
  <defs>
    <clipPath id="a">
      <path fill="#fff" d="M.67 0h25v25h-25z" />
    </clipPath>
  </defs>
</svg>
