<svg xmlns="http://www.w3.org/2000/svg" width="26" height="26" fill="none" viewBox="0 0 26 26">
  <g clip-path="url(#a)">
    <path stroke="#2D383F" stroke-linecap="round" stroke-linejoin="round" d="M22.84 23.69a2 2 0 0 1-1.99 1.12 22.24 22.24 0 0 1-13.29-6.4A22.31 22.31 0 0 1 1.2 5.07a2.01 2.01 0 0 1 1.12-2l3.25-1.65c1.26-.65 2.78.1 3.22 1.45a22.06 22.06 0 0 0 1.53 3.57c.49.9.16 2.05-.77 2.48a2.13 2.13 0 0 0-.62 3.44l4.67 4.69a2.12 2.12 0 0 0 3.43-.62 1.9 1.9 0 0 1 2.61-.85 21.75 21.75 0 0 0 3.46 1.41c1.37.43 2.14 1.98 1.5 3.25l-1.75 3.45Z"/>
  </g>
  <defs>
    <clipPath id="a">
      <path fill="#fff" d="M0 0h26v26H0z"/>
    </clipPath>
  </defs>
</svg>
