<svg xmlns="http://www.w3.org/2000/svg" width="84" height="16" fill="none" viewBox="0 0 84 16">
  <path fill="#fff" d="m7.63 11.7 4.72 2.6-1.25-4.92 4.17-3.3-5.5-.44L7.64 1 5.5 5.64 0 6.07l4.16 3.31-1.24 4.92 4.71-2.6Zm17 0 4.72 2.6-1.25-4.92 4.17-3.3-5.5-.44L24.64 1 22.5 5.64l-5.5.43 4.16 3.31-1.24 4.92 4.71-2.6Zm17 0 4.72 2.6-1.25-4.92 4.17-3.3-5.5-.44L41.64 1 39.5 5.64l-5.5.43 4.16 3.31-1.24 4.92 4.71-2.6Z" />
  <path fill="#fff" fill-rule="evenodd" d="m58.63 10.55 3.19 1.76L60.98 9l2.68-2.13-3.54-.28-1.49-3.2-1.48 3.2-3.54.28L56.3 9l-.84 3.3 3.18-1.75Zm-4.71 3.75 1.24-4.92L51 6.08l5.49-.44L58.63 1l2.15 4.64 5.49.43-4.17 3.31 1.25 4.92-4.72-2.6-4.71 2.6Zm21.71-3.75 3.19 1.76L77.98 9l2.68-2.13-3.54-.28-1.49-3.2-1.48 3.2-3.54.28L73.3 9l-.84 3.3 3.18-1.75Zm-4.71 3.75 1.24-4.92L68 6.08l5.49-.44L75.63 1l2.15 4.64 5.49.43-4.17 3.31 1.25 4.92-4.72-2.6-4.71 2.6Z" clip-rule="evenodd" />
</svg>
